<svg xmlns="http://www.w3.org/2000/svg" width="398" height="200"><linearGradient id="a" gradientUnits="userSpaceOnUse" x1="199" y1="199.432" x2="199" y2=".568"><stop offset="0" stop-color="#fff" stop-opacity="0"/><stop offset="1" stop-color="#fff" stop-opacity=".2"/></linearGradient><path fill="url(#a)" d="M316.695 37.094c-11.992 0-23.365 2.621-33.608 7.289-16.035-26.274-44.967-43.815-77.999-43.815-29.92 0-56.477 14.39-73.132 36.627-1.318-.064-2.644-.101-3.978-.101-20.962 0-40.066 7.948-54.469 20.993-3.085-.457-6.24-.701-9.452-.701-35.302 0-63.921 28.618-63.921 63.921s28.618 63.921 63.921 63.921c5.315 0 10.474-.66 15.41-1.882 13.533 10.104 30.323 16.087 48.51 16.087 8.517 0 16.725-1.319 24.439-3.751 6.358 1.124 12.944 1.722 19.697 1.722 23.247 0 44.558-7.007 61.156-18.657 7.199-2.334 14.001-5.538 20.292-9.487 14.88 18.399 37.627 30.174 63.134 30.174 44.828 0 81.169-36.341 81.169-81.169 0-44.83-36.341-81.171-81.169-81.171z"/><path opacity=".05" fill="#fff" d="M64.057 60.386c3.212 0 6.367.243 9.452.701 14.403-13.044 33.507-20.993 54.469-20.993 1.334 0 2.66.037 3.978.101 16.655-22.236 43.213-36.627 73.132-36.627 33.032 0 61.965 17.541 77.999 43.815 10.244-4.668 21.617-7.289 33.608-7.289 44.325 0 80.328 35.535 81.131 79.669.009-.501.038-.997.038-1.5 0-44.828-36.341-81.169-81.169-81.169-11.992 0-23.365 2.621-33.608 7.289-16.035-26.274-44.967-43.815-77.999-43.815-29.92 0-56.477 14.391-73.132 36.627-1.318-.064-2.644-.101-3.978-.101-20.962 0-40.066 7.948-54.469 20.993-3.085-.457-6.24-.701-9.452-.701-35.302 0-63.921 28.618-63.921 63.921 0 .503.026 1 .038 1.5.8-34.607 29.083-62.421 63.883-62.421z"/></svg>