<svg xmlns="http://www.w3.org/2000/svg" width="215" height="68"><pattern y="162" width="69" height="69" patternUnits="userSpaceOnUse" viewBox="2.125 -70.896 69 69" overflow="visible"><polygon points="71.125,-1.896 2.125,-1.896 2.125,-70.896 71.125,-70.896" fill="none"/><polygon fill="#F7BC60" points="71.125,-1.896 2.125,-1.896 2.125,-70.896 71.125,-70.896"/><g fill="#fff"><path d="M61.772-71.653c.018.072.007.127-.026.19l-.165.128c-.05.062-.099.276-.079.362-.169.058-.01.227-.015.35l-.045.161c-.01.119.017.266.068.37.097.198.268.413.435.544.19.148.365.572.608.631.177.042.384-.104.543-.143.18-.043.397.01.571-.053.222-.079.127-.337.288-.45.104-.074.287-.01.406-.051.2-.069.339-.263.376-.46l.039-.221c.038-.103.111-.16.09-.293l-.065-.187.001-.337c-.003-.2.017-.379-.078-.55-.38-.688-1.236-.929-1.975-.789-.18.034-.287.126-.442.207-.17.088-.139.166-.318.224-.081.026-.216.124-.215.224l.012.169-.03-.025"/><path d="M54.105-71.653c.018.072.007.127-.026.19l-.165.128c-.05.062-.099.276-.079.362-.169.058-.01.227-.015.35l-.045.161c-.01.119.017.266.068.37.097.198.268.413.435.544.19.148.365.572.608.631.177.042.384-.104.543-.143.18-.043.397.01.571-.053.222-.079.127-.337.288-.45.104-.074.287-.01.406-.051.2-.069.339-.263.376-.46l.039-.221c.038-.103.111-.16.09-.293l-.064-.187v-.337c-.003-.2.017-.379-.078-.55-.38-.688-1.236-.929-1.975-.789-.18.034-.287.126-.442.207-.17.088-.139.166-.318.224-.081.026-.216.124-.215.224l.012.169-.03-.025"/><path d="M46.439-71.653c.018.072.007.127-.026.19l-.165.128c-.05.062-.099.276-.079.362-.169.058-.01.227-.015.35l-.045.161c-.01.119.017.266.068.37.097.198.268.413.435.544.19.148.365.572.608.631.177.042.384-.104.543-.143.18-.043.397.01.571-.053.222-.079.127-.337.288-.45.104-.074.287-.01.406-.051.2-.069.339-.263.376-.46l.039-.221c.038-.103.111-.16.09-.293l-.064-.187v-.337c-.003-.2.017-.379-.078-.55-.38-.688-1.236-.929-1.975-.789-.18.034-.287.126-.442.207-.17.088-.139.166-.318.224-.081.026-.216.124-.215.224l.012.169-.03-.025"/><path d="M38.772-71.653c.018.072.007.127-.026.19l-.165.128c-.05.062-.099.276-.079.362-.169.058-.01.227-.015.35l-.045.161c-.01.119.017.266.068.37.097.198.268.413.435.544.19.148.365.572.608.631.177.042.384-.104.543-.143.18-.043.397.01.571-.053.222-.079.127-.337.288-.45.104-.074.287-.01.406-.051.2-.069.339-.263.376-.46l.039-.221c.038-.103.111-.16.09-.293l-.064-.187v-.337c-.003-.2.017-.379-.078-.55-.38-.688-1.236-.929-1.975-.789-.18.034-.287.126-.442.207-.17.088-.139.166-.318.224-.081.026-.216.124-.215.224l.012.169-.03-.025"/><path d="M31.105-71.653c.017.072.007.127-.026.19l-.165.128c-.05.062-.099.276-.079.362-.169.058-.01.227-.015.35l-.045.161c-.01.119.017.266.068.37.097.198.268.413.435.544.19.148.365.572.608.631.177.042.384-.104.543-.143.18-.043.397.01.571-.053.222-.079.127-.337.288-.45.104-.074.287-.01.406-.051.2-.069.339-.263.376-.46l.039-.221c.038-.103.111-.16.09-.293l-.064-.187v-.337c-.003-.2.017-.379-.078-.55-.38-.688-1.236-.929-1.975-.789-.18.034-.287.126-.442.207-.17.088-.139.166-.318.224-.081.026-.216.124-.215.224l.012.169-.03-.025"/><path d="M23.439-71.653c.017.072.007.127-.026.19l-.165.128c-.05.062-.099.276-.079.362-.169.058-.01.227-.015.35l-.045.161c-.01.119.017.266.068.37.097.198.268.413.435.544.19.148.365.572.608.631.177.042.384-.104.543-.143.18-.043.397.01.571-.053.222-.079.127-.337.288-.45.104-.074.287-.01.406-.051.2-.069.339-.263.376-.46l.039-.221c.038-.103.111-.16.09-.293l-.065-.187v-.337c-.003-.2.017-.379-.078-.55-.38-.688-1.236-.929-1.975-.789-.18.034-.287.126-.442.207-.17.088-.139.166-.318.224-.081.026-.216.124-.215.224l.012.169-.03-.025"/><path d="M15.773-71.653c.017.072.007.127-.026.19l-.165.128c-.05.062-.099.276-.079.362-.169.058-.01.227-.015.35l-.045.161c-.01.119.017.266.068.37.097.198.268.413.435.544.19.148.365.572.608.631.177.042.384-.104.543-.143.18-.043.397.01.571-.053.222-.079.127-.337.288-.45.104-.074.287-.01.406-.051.2-.069.339-.263.376-.46l.039-.221c.038-.103.111-.16.09-.293l-.065-.187v-.337c-.003-.2.017-.379-.078-.55-.38-.688-1.236-.929-1.975-.789-.18.034-.287.126-.442.207-.17.088-.139.166-.318.224-.081.026-.216.124-.215.224l.012.169-.03-.025"/><path d="M8.105-71.653c.018.072.007.127-.026.19l-.165.128c-.05.062-.099.276-.079.362-.169.058-.01.227-.015.35l-.045.161c-.01.119.017.266.068.37.097.198.268.413.435.544.19.148.365.572.608.631.177.042.384-.104.543-.143.18-.043.397.01.571-.053.222-.079.127-.337.288-.45.105-.074.287-.01.406-.051.2-.069.339-.263.376-.46l.039-.221c.038-.103.111-.16.09-.293l-.064-.187v-.337c-.003-.2.017-.379-.078-.55-.38-.688-1.236-.929-1.975-.789-.18.034-.287.126-.442.207-.17.088-.139.166-.318.224-.081.026-.216.124-.215.224l.012.169-.03-.025"/><path d="M.439-71.653c.018.072.008.127-.026.19l-.165.128c-.051.062-.099.276-.079.362-.169.058-.01.227-.015.35l-.045.161c-.01.119.017.266.068.37.097.198.268.413.435.544.19.148.365.572.608.631.177.042.384-.104.543-.143.18-.043.397.01.571-.053.222-.079.127-.337.288-.45.104-.074.287-.01.406-.051.2-.07.339-.263.376-.46l.039-.221c.038-.103.111-.16.09-.293l-.064-.187v-.337c-.003-.2.017-.379-.078-.55-.38-.688-1.236-.929-1.975-.789-.18.034-.287.126-.442.207-.17.088-.139.166-.318.224-.081.026-.215.124-.215.224l.012.169-.03-.025"/></g><path fill="#fff" d="M69.439-71.653c.017.072.008.127-.026.19l-.165.128c-.051.062-.099.276-.079.362-.169.058-.01.227-.015.35l-.045.161c-.01.119.017.266.068.37.097.198.268.413.435.544.19.148.365.572.608.631.177.042.384-.104.543-.143.18-.043.397.01.571-.053.222-.079.127-.337.288-.45.104-.074.287-.01.406-.051.2-.07.339-.263.376-.46l.039-.221c.038-.103.111-.16.09-.293l-.064-.187.001-.337c-.003-.2.017-.379-.078-.55-.38-.688-1.236-.929-1.975-.789-.18.034-.287.126-.442.207-.17.088-.139.166-.318.224-.081.026-.215.124-.215.224l.012.169-.03-.025"/><path fill="#fff" d="M.495-71.653c.018.072.008.127-.026.19l-.165.128c-.051.062-.099.276-.079.362-.169.058-.01.227-.015.35l-.045.161c-.01.119.017.266.068.37.097.198.268.413.435.544.19.148.365.572.608.631.177.042.384-.104.543-.143.18-.043.397.01.571-.053.222-.079.127-.337.288-.45.104-.074.287-.01.406-.051.2-.07.339-.263.376-.46l.039-.221c.038-.103.111-.16.09-.293l-.064-.187v-.337c-.003-.2.017-.379-.078-.55-.38-.688-1.236-.929-1.975-.789-.18.034-.287.126-.442.207-.17.088-.139.166-.318.224-.081.026-.215.124-.215.224l.013.17-.03-.025"/><g fill="#fff"><path d="M69.439-64.001c.017.072.007.127-.026.19l-.165.128c-.05.062-.099.276-.079.362-.169.058-.01.227-.015.35l-.045.161c-.01.119.017.266.068.37.097.198.268.413.435.544.19.148.365.572.608.631.177.042.384-.104.543-.143.18-.043.397.01.571-.053.222-.079.127-.337.288-.45.104-.074.287-.01.406-.051.2-.069.339-.263.376-.46l.039-.221c.039-.102.111-.16.09-.293l-.064-.187.001-.337c-.003-.2.017-.379-.078-.55-.38-.688-1.236-.929-1.975-.789-.18.034-.287.126-.442.207-.17.088-.139.166-.318.224-.081.026-.216.124-.215.224l.012.169-.03-.025"/><path d="M61.778-64.001c.018.072.007.127-.026.19l-.165.128c-.05.062-.099.276-.079.362-.169.058-.009.227-.015.35l-.045.161c-.01.119.017.266.068.37.097.198.268.413.435.544.19.148.365.572.608.631.177.042.384-.104.543-.143.18-.043.397.01.571-.053.222-.079.127-.337.288-.45.104-.074.287-.01.406-.051.2-.069.339-.263.376-.46l.039-.221c.039-.102.111-.16.09-.293l-.064-.187v-.337c-.003-.2.017-.379-.078-.55-.38-.688-1.236-.929-1.975-.789-.18.034-.287.126-.442.207-.17.088-.139.166-.318.224-.081.026-.216.124-.215.224l.012.169-.03-.025"/><path d="M54.118-64.001c.018.072.007.127-.026.19l-.165.128c-.05.062-.099.276-.079.362-.169.058-.009.227-.015.35l-.045.161c-.01.119.017.266.068.37.097.198.268.413.435.544.19.148.365.572.608.631.177.042.384-.104.543-.143.18-.043.397.01.571-.053.222-.079.127-.337.288-.45.104-.074.287-.01.406-.051.2-.069.339-.263.376-.46l.039-.221c.038-.102.111-.16.09-.293l-.064-.187v-.337c-.003-.2.017-.379-.078-.55-.38-.688-1.236-.929-1.975-.789-.18.034-.287.126-.442.207-.17.088-.139.166-.318.224-.081.026-.216.124-.215.224l.012.169-.03-.025"/><path d="M46.458-64.001c.018.072.007.127-.026.19l-.165.128c-.05.062-.099.276-.079.362-.169.058-.009.227-.015.35l-.045.161c-.01.119.017.266.068.37.097.198.268.413.435.544.19.148.365.572.608.631.177.042.384-.104.543-.143.18-.043.397.01.571-.053.222-.079.127-.337.288-.45.104-.074.287-.01.406-.051.2-.069.339-.263.376-.46l.039-.221c.039-.102.111-.16.09-.293l-.064-.187v-.337c-.003-.2.017-.379-.078-.55-.38-.688-1.236-.929-1.975-.789-.18.034-.287.126-.442.207-.17.088-.139.166-.318.224-.081.026-.216.124-.215.224l.012.169-.03-.025"/><path d="M38.797-64.001c.017.072.007.127-.026.19l-.165.128c-.05.062-.099.276-.079.362-.169.058-.009.227-.015.35l-.045.161c-.01.119.017.266.068.37.097.198.268.413.435.544.19.148.365.572.608.631.177.042.384-.104.543-.143.18-.043.397.01.571-.053.222-.079.127-.337.288-.45.104-.074.287-.01.406-.051.2-.069.339-.263.376-.46l.039-.221c.039-.102.111-.16.09-.293l-.065-.187v-.337c-.003-.2.017-.379-.078-.55-.38-.688-1.236-.929-1.975-.789-.18.034-.287.126-.442.207-.17.088-.139.166-.318.224-.081.026-.216.124-.215.224l.012.169-.03-.025"/><path d="M31.137-64.001c.018.072.007.127-.026.19l-.165.128c-.05.062-.099.276-.079.362-.169.058-.009.227-.015.35l-.045.161c-.01.119.017.266.068.37.097.198.268.413.435.544.19.148.365.572.608.631.177.042.384-.104.543-.143.18-.043.397.01.571-.053.222-.079.127-.337.288-.45.104-.074.287-.01.406-.051.2-.069.339-.263.376-.46l.039-.221c.039-.102.111-.16.09-.293l-.064-.187v-.337c-.003-.2.017-.379-.078-.55-.38-.688-1.236-.929-1.975-.789-.18.034-.287.126-.442.207-.17.088-.139.166-.318.224-.081.026-.216.124-.215.224l.012.169-.03-.025"/><path d="M23.477-64.001c.017.072.007.127-.026.19l-.165.128c-.05.062-.099.276-.079.362-.169.058-.009.227-.015.35l-.045.161c-.01.119.017.266.068.37.097.198.268.413.435.544.19.148.365.572.608.631.177.042.384-.104.543-.143.18-.043.397.01.571-.053.222-.079.127-.337.288-.45.104-.074.287-.01.406-.051.2-.069.339-.263.376-.46l.039-.221c.038-.102.111-.16.09-.293l-.065-.187v-.337c-.003-.2.017-.379-.078-.55-.38-.688-1.236-.929-1.975-.789-.18.034-.287.126-.442.207-.17.088-.139.166-.318.224-.081.026-.216.124-.215.224l.012.169-.03-.025"/><path d="M15.816-64.001c.018.072.007.127-.026.19l-.165.128c-.05.062-.099.276-.079.362-.169.058-.009.227-.015.35l-.045.161c-.01.119.017.266.068.37.097.198.268.413.435.544.19.148.365.572.608.631.177.042.384-.104.543-.143.18-.043.397.01.571-.053.222-.079.128-.337.288-.45.104-.074.287-.01.406-.051.2-.069.339-.263.376-.46l.039-.221c.039-.102.111-.16.09-.293l-.064-.187v-.337c-.003-.2.017-.379-.078-.55-.38-.688-1.236-.929-1.975-.789-.18.034-.287.126-.442.207-.17.088-.139.166-.318.224-.081.026-.216.124-.215.224l.012.169-.03-.025"/><path d="M8.156-64.001c.018.072.007.127-.026.19l-.165.128c-.05.062-.099.276-.079.362-.169.058-.009.227-.015.35l-.045.161c-.01.119.017.266.068.37.097.198.268.413.435.544.19.148.365.572.608.631.177.042.384-.104.543-.143.18-.043.397.01.571-.053.222-.079.127-.337.288-.45.104-.074.287-.01.406-.051.2-.069.339-.263.376-.46l.039-.221c.038-.102.111-.16.09-.293l-.064-.187v-.337c-.003-.2.017-.379-.078-.55-.38-.688-1.236-.929-1.975-.789-.18.034-.287.126-.442.207-.17.088-.139.166-.318.224-.081.026-.216.124-.215.224l.012.169-.03-.025"/><path d="M.495-64.001c.018.072.007.127-.026.19l-.165.128c-.05.062-.099.276-.079.362-.169.058-.01.227-.015.35l-.045.161c-.01.119.017.266.068.37.097.198.268.413.435.544.19.148.365.572.608.631.177.042.384-.104.543-.143.181-.042.398.011.572-.052.222-.079.127-.337.288-.45.104-.074.287-.01.406-.051.2-.069.339-.263.376-.46l.039-.221c.039-.102.111-.16.09-.293l-.064-.187v-.337c-.003-.2.017-.379-.078-.55-.38-.688-1.236-.929-1.975-.789-.18.034-.287.126-.442.207-.17.088-.139.166-.318.224-.081.026-.216.124-.215.224l.012.169-.03-.025"/><path d="M69.439-56.348c.017.072.007.127-.026.19l-.165.128c-.05.062-.099.276-.079.362-.169.058-.01.227-.015.35l-.045.161c-.01.119.017.266.068.37.097.198.268.413.435.544.19.148.365.572.608.631.177.042.384-.104.543-.143.18-.043.397.01.571-.053.222-.079.127-.337.288-.45.104-.074.287-.01.406-.051.2-.069.339-.263.376-.46l.039-.221c.039-.103.111-.16.09-.293l-.064-.187.001-.337c-.003-.2.017-.379-.078-.55-.38-.688-1.236-.929-1.975-.789-.18.034-.287.126-.442.207-.17.088-.139.166-.318.224-.081.026-.216.124-.215.224l.012.169-.03-.025"/><path d="M61.778-56.348c.018.072.007.127-.026.19l-.165.128c-.05.062-.099.276-.079.362-.169.058-.009.227-.015.35l-.045.161c-.01.119.017.266.068.37.097.198.268.413.435.544.19.148.365.572.608.631.177.042.384-.104.543-.143.18-.043.397.01.571-.053.222-.079.127-.337.288-.45.104-.074.287-.01.406-.051.2-.069.339-.263.376-.46l.039-.221c.039-.103.111-.16.09-.293l-.064-.187v-.337c-.003-.2.017-.379-.078-.55-.38-.688-1.236-.929-1.975-.789-.18.034-.287.126-.442.207-.17.088-.139.166-.318.224-.081.026-.216.124-.215.224l.012.169-.03-.025"/><path d="M54.118-56.348c.018.072.007.127-.026.19l-.165.128c-.05.062-.099.276-.079.362-.169.058-.009.227-.015.35l-.045.161c-.01.119.017.266.068.37.097.198.268.413.435.544.19.148.365.572.608.631.177.042.384-.104.543-.143.18-.043.397.01.571-.053.222-.079.127-.337.288-.45.104-.074.287-.01.406-.051.2-.069.339-.263.376-.46l.039-.221c.038-.103.111-.16.09-.293l-.064-.187v-.337c-.003-.2.017-.379-.078-.55-.38-.688-1.236-.929-1.975-.789-.18.034-.287.126-.442.207-.17.088-.139.166-.318.224-.081.026-.216.124-.215.224l.012.169-.03-.025"/><path d="M46.458-56.348c.018.072.007.127-.026.19l-.165.128c-.05.062-.099.276-.079.362-.169.058-.009.227-.015.35l-.045.161c-.01.119.017.266.068.37.097.198.268.413.435.544.19.148.365.572.608.631.177.042.384-.104.543-.143.18-.043.397.01.571-.053.222-.079.127-.337.288-.45.104-.074.287-.01.406-.051.2-.069.339-.263.376-.46l.039-.221c.039-.103.111-.16.09-.293l-.064-.187v-.337c-.003-.2.017-.379-.078-.55-.38-.688-1.236-.929-1.975-.789-.18.034-.287.126-.442.207-.17.088-.139.166-.318.224-.081.026-.216.124-.215.224l.012.169-.03-.025"/><path d="M38.797-56.348c.017.072.007.127-.026.19l-.165.128c-.05.062-.099.276-.079.362-.169.058-.009.227-.015.35l-.045.161c-.01.119.017.266.068.37.097.198.268.413.435.544.19.148.365.572.608.631.177.042.384-.104.543-.143.18-.043.397.01.571-.053.222-.079.127-.337.288-.45.104-.074.287-.01.406-.051.2-.069.339-.263.376-.46l.039-.221c.039-.103.111-.16.09-.293l-.065-.187v-.337c-.003-.2.017-.379-.078-.55-.38-.688-1.236-.929-1.975-.789-.18.034-.287.126-.442.207-.17.088-.139.166-.318.224-.081.026-.216.124-.215.224l.012.169-.03-.025"/><path d="M31.137-56.348c.018.072.007.127-.026.19l-.165.128c-.05.062-.099.276-.079.362-.169.058-.009.227-.015.35l-.045.161c-.01.119.017.266.068.37.097.198.268.413.435.544.19.148.365.572.608.631.177.042.384-.104.543-.143.18-.043.397.01.571-.053.222-.079.127-.337.288-.45.104-.074.287-.01.406-.051.2-.069.339-.263.376-.46l.039-.221c.039-.103.111-.16.09-.293l-.064-.187v-.337c-.003-.2.017-.379-.078-.55-.38-.688-1.236-.929-1.975-.789-.18.034-.287.126-.442.207-.17.088-.139.166-.318.224-.081.026-.216.124-.215.224l.012.169-.03-.025"/><path d="M23.477-56.348c.017.072.007.127-.026.19l-.165.128c-.05.062-.099.276-.079.362-.169.058-.009.227-.015.35l-.045.161c-.01.119.017.266.068.37.097.198.268.413.435.544.19.148.365.572.608.631.177.042.384-.104.543-.143.18-.043.397.01.571-.053.222-.079.127-.337.288-.45.104-.074.287-.01.406-.051.2-.069.339-.263.376-.46l.039-.221c.038-.103.111-.16.09-.293l-.065-.187v-.337c-.003-.2.017-.379-.078-.55-.38-.688-1.236-.929-1.975-.789-.18.034-.287.126-.442.207-.17.088-.139.166-.318.224-.081.026-.216.124-.215.224l.012.169-.03-.025"/><path d="M15.816-56.348c.018.072.007.127-.026.19l-.165.128c-.05.062-.099.276-.079.362-.169.058-.009.227-.015.35l-.045.161c-.01.119.017.266.068.37.097.198.268.413.435.544.19.148.365.572.608.631.177.042.384-.104.543-.143.18-.043.397.01.571-.053.222-.079.128-.337.288-.45.104-.074.287-.01.406-.051.2-.069.339-.263.376-.46l.039-.221c.039-.103.111-.16.09-.293l-.064-.187v-.337c-.003-.2.017-.379-.078-.55-.38-.688-1.236-.929-1.975-.789-.18.034-.287.126-.442.207-.17.088-.139.166-.318.224-.081.026-.216.124-.215.224l.012.169-.03-.025"/><path d="M8.156-56.348c.018.072.007.127-.026.19l-.165.128c-.05.062-.099.276-.079.362-.169.058-.009.227-.015.35l-.045.161c-.01.119.017.266.068.37.097.198.268.413.435.544.19.148.365.572.608.631.177.042.384-.104.543-.143.18-.043.397.01.571-.053.222-.079.127-.337.288-.45.104-.074.287-.01.406-.051.2-.069.339-.263.376-.46l.039-.221c.038-.103.111-.16.09-.293l-.064-.187v-.337c-.003-.2.017-.379-.078-.55-.38-.688-1.236-.929-1.975-.789-.18.034-.287.126-.442.207-.17.088-.139.166-.318.224-.081.026-.216.124-.215.224l.012.169-.03-.025"/><path d="M.495-56.348c.018.072.007.127-.026.19l-.165.128c-.05.062-.099.276-.079.362-.169.058-.01.227-.015.35l-.045.161c-.01.119.017.266.068.37.097.198.268.413.435.544.19.148.365.572.608.631.177.042.384-.104.543-.143.18-.043.397.01.571-.053.222-.079.127-.337.288-.45.104-.074.287-.01.406-.051.2-.069.339-.263.376-.46l.039-.221c.039-.103.111-.16.09-.293l-.064-.187v-.337c-.003-.2.017-.379-.078-.55-.38-.688-1.236-.929-1.975-.789-.18.034-.287.126-.442.207-.17.088-.139.166-.318.224-.081.026-.216.124-.215.224l.013.171-.03-.025"/><path d="M69.439-48.695c.017.072.007.127-.026.19l-.165.128c-.05.062-.099.276-.079.362-.169.058-.01.226-.015.35l-.045.161c-.01.119.017.266.068.37.097.198.268.413.435.544.19.148.365.572.608.631.177.042.384-.104.543-.143.18-.043.397.01.571-.053.222-.079.127-.337.288-.45.104-.074.287-.01.406-.051.2-.069.339-.263.376-.46l.039-.221c.039-.103.111-.16.09-.293l-.064-.187.001-.337c-.003-.2.017-.379-.078-.55-.38-.688-1.236-.929-1.975-.789-.18.034-.287.126-.442.207-.17.088-.139.166-.318.224-.081.026-.216.124-.215.224l.012.169-.03-.025"/><path d="M61.778-48.695c.018.072.007.127-.026.19l-.165.128c-.05.062-.099.276-.079.362-.169.058-.009.226-.015.35l-.045.161c-.01.119.017.266.068.37.097.198.268.413.435.544.19.148.365.572.608.631.177.042.384-.104.543-.143.18-.043.397.01.571-.053.222-.079.127-.337.288-.45.104-.074.287-.01.406-.051.2-.069.339-.263.376-.46l.039-.221c.039-.103.111-.16.09-.293l-.064-.187v-.337c-.003-.2.017-.379-.078-.55-.38-.688-1.236-.929-1.975-.789-.18.034-.287.126-.442.207-.17.088-.139.166-.318.224-.081.026-.216.124-.215.224l.012.169-.03-.025"/><path d="M54.118-48.695c.018.072.007.127-.026.19l-.165.128c-.05.062-.099.276-.079.362-.169.058-.009.226-.015.35l-.045.161c-.01.119.017.266.068.37.097.198.268.413.435.544.19.148.365.572.608.631.177.042.384-.104.543-.143.18-.043.397.01.571-.053.222-.079.127-.337.288-.45.104-.074.287-.01.406-.051.2-.069.339-.263.376-.46l.039-.221c.038-.103.111-.16.09-.293l-.064-.187v-.337c-.003-.2.017-.379-.078-.55-.38-.688-1.236-.929-1.975-.789-.18.034-.287.126-.442.207-.17.088-.139.166-.318.224-.081.026-.216.124-.215.224l.012.169-.03-.025"/><path d="M46.458-48.695c.018.072.007.127-.026.19l-.165.128c-.05.062-.099.276-.079.362-.169.058-.009.226-.015.35l-.045.161c-.01.119.017.266.068.37.097.198.268.413.435.544.19.148.365.572.608.631.177.042.384-.104.543-.143.18-.043.397.01.571-.053.222-.079.127-.337.288-.45.104-.074.287-.01.406-.051.2-.069.339-.263.376-.46l.039-.221c.039-.103.111-.16.09-.293l-.064-.187v-.337c-.003-.2.017-.379-.078-.55-.38-.688-1.236-.929-1.975-.789-.18.034-.287.126-.442.207-.17.088-.139.166-.318.224-.081.026-.216.124-.215.224l.012.169-.03-.025"/><path d="M38.797-48.695c.017.072.007.127-.026.19l-.165.128c-.05.062-.099.276-.079.362-.169.058-.009.226-.015.35l-.045.161c-.01.119.017.266.068.37.097.198.268.413.435.544.19.148.365.572.608.631.177.042.384-.104.543-.143.18-.043.397.01.571-.053.222-.079.127-.337.288-.45.104-.074.287-.01.406-.051.2-.069.339-.263.376-.46l.039-.221c.039-.103.111-.16.09-.293l-.065-.187v-.337c-.003-.2.017-.379-.078-.55-.38-.688-1.236-.929-1.975-.789-.18.034-.287.126-.442.207-.17.088-.139.166-.318.224-.081.026-.216.124-.215.224l.012.169-.03-.025"/><path d="M31.137-48.695c.018.072.007.127-.026.19l-.165.128c-.05.062-.099.276-.079.362-.169.058-.009.226-.015.35l-.045.161c-.01.119.017.266.068.37.097.198.268.413.435.544.19.148.365.572.608.631.177.042.384-.104.543-.143.18-.043.397.01.571-.053.222-.079.127-.337.288-.45.104-.074.287-.01.406-.051.2-.069.339-.263.376-.46l.039-.221c.039-.103.111-.16.09-.293l-.064-.187v-.337c-.003-.2.017-.379-.078-.55-.38-.688-1.236-.929-1.975-.789-.18.034-.287.126-.442.207-.17.088-.139.166-.318.224-.081.026-.216.124-.215.224l.012.169-.03-.025"/><path d="M23.477-48.695c.017.072.007.127-.026.19l-.165.128c-.05.062-.099.276-.079.362-.169.058-.009.226-.015.35l-.045.161c-.01.119.017.266.068.37.097.198.268.413.435.544.19.148.365.572.608.631.177.042.384-.104.543-.143.18-.043.397.01.571-.053.222-.079.127-.337.288-.45.104-.074.287-.01.406-.051.2-.069.339-.263.376-.46l.039-.221c.038-.103.111-.16.09-.293l-.065-.187v-.337c-.003-.2.017-.379-.078-.55-.38-.688-1.236-.929-1.975-.789-.18.034-.287.126-.442.207-.17.088-.139.166-.318.224-.081.026-.216.124-.215.224l.012.169-.03-.025"/><path d="M15.816-48.695c.018.072.007.127-.026.19l-.165.128c-.05.062-.099.276-.079.362-.169.058-.009.226-.015.35l-.045.161c-.01.119.017.266.068.37.097.198.268.413.435.544.19.148.365.572.608.631.177.042.384-.104.543-.143.18-.043.397.01.571-.053.222-.079.128-.337.288-.45.104-.074.287-.01.406-.051.2-.069.339-.263.376-.46l.039-.221c.039-.103.111-.16.09-.293l-.064-.187v-.337c-.003-.2.017-.379-.078-.55-.38-.688-1.236-.929-1.975-.789-.18.034-.287.126-.442.207-.17.088-.139.166-.318.224-.081.026-.216.124-.215.224l.012.169-.03-.025"/><path d="M8.156-48.695c.018.072.007.127-.026.19l-.165.128c-.05.062-.099.276-.079.362-.169.058-.009.226-.015.35l-.045.161c-.01.119.017.266.068.37.097.198.268.413.435.544.19.148.365.572.608.631.177.042.384-.104.543-.143.18-.043.397.01.571-.053.222-.079.127-.337.288-.45.104-.074.287-.01.406-.051.2-.069.339-.263.376-.46l.039-.221c.038-.103.111-.16.09-.293l-.064-.187v-.337c-.003-.2.017-.379-.078-.55-.38-.688-1.236-.929-1.975-.789-.18.034-.287.126-.442.207-.17.088-.139.166-.318.224-.081.026-.216.124-.215.224l.012.169-.03-.025"/><path d="M.495-48.695c.018.072.007.127-.026.19l-.165.128c-.05.062-.099.276-.079.362-.169.058-.01.226-.015.35l-.045.161c-.01.119.017.266.068.37.097.198.268.413.435.544.19.148.365.572.608.631.177.042.384-.104.543-.143.18-.043.397.01.571-.053.222-.079.127-.337.288-.45.104-.074.287-.01.406-.051.2-.069.339-.263.376-.46l.039-.221c.039-.103.111-.16.09-.293l-.064-.187v-.337c-.003-.2.017-.379-.078-.55-.38-.688-1.236-.929-1.975-.789-.18.034-.287.126-.442.207-.17.088-.139.166-.318.224-.081.026-.216.124-.215.224l.012.169-.03-.025"/><path d="M69.439-41.042c.017.072.007.127-.026.19l-.165.128c-.05.062-.099.276-.079.362-.169.058-.01.227-.015.35l-.045.161c-.01.119.017.266.068.37.097.198.268.413.435.544.19.148.365.572.608.631.177.042.384-.104.543-.143.18-.043.397.01.571-.053.222-.079.127-.337.288-.45.104-.074.287-.01.406-.051.2-.069.339-.263.376-.46l.039-.221c.039-.103.111-.16.09-.293l-.064-.187.001-.337c-.003-.2.017-.379-.078-.55-.38-.688-1.236-.929-1.975-.789-.18.034-.287.126-.442.207-.17.088-.139.166-.318.224-.081.026-.216.124-.215.224l.012.169-.03-.025"/><path d="M61.778-41.042c.018.072.007.127-.026.19l-.165.128c-.05.062-.099.276-.079.362-.169.058-.009.227-.015.35l-.045.161c-.01.119.017.266.068.37.097.198.268.413.435.544.19.148.365.572.608.631.177.042.384-.104.543-.143.18-.043.397.01.571-.053.222-.079.127-.337.288-.45.104-.074.287-.01.406-.051.2-.069.339-.263.376-.46l.039-.221c.039-.103.111-.16.09-.293l-.064-.187v-.337c-.003-.2.017-.379-.078-.55-.38-.688-1.236-.929-1.975-.789-.18.034-.287.126-.442.207-.17.088-.139.166-.318.224-.081.026-.216.124-.215.224l.012.169-.03-.025"/><path d="M54.118-41.042c.018.072.007.127-.026.19l-.165.128c-.05.062-.099.276-.079.362-.169.058-.009.227-.015.35l-.045.161c-.01.119.017.266.068.37.097.198.268.413.435.544.19.148.365.572.608.631.177.042.384-.104.543-.143.18-.043.397.01.571-.053.222-.079.127-.337.288-.45.104-.074.287-.01.406-.051.2-.069.339-.263.376-.46l.039-.221c.038-.103.111-.16.09-.293l-.064-.187v-.337c-.003-.2.017-.379-.078-.55-.38-.688-1.236-.929-1.975-.789-.18.034-.287.126-.442.207-.17.088-.139.166-.318.224-.081.026-.216.124-.215.224l.012.169-.03-.025"/><path d="M46.458-41.042c.018.072.007.127-.026.19l-.165.128c-.05.062-.099.276-.079.362-.169.058-.009.227-.015.35l-.045.161c-.01.119.017.266.068.37.097.198.268.413.435.544.19.148.365.572.608.631.177.042.384-.104.543-.143.18-.043.397.01.571-.053.222-.079.127-.337.288-.45.104-.074.287-.01.406-.051.2-.069.339-.263.376-.46l.039-.221c.039-.103.111-.16.09-.293l-.064-.187v-.337c-.003-.2.017-.379-.078-.55-.38-.688-1.236-.929-1.975-.789-.18.034-.287.126-.442.207-.17.088-.139.166-.318.224-.081.026-.216.124-.215.224l.012.169-.03-.025"/><path d="M38.797-41.042c.017.072.007.127-.026.19l-.165.128c-.05.062-.099.276-.079.362-.169.058-.009.227-.015.35l-.045.161c-.01.119.017.266.068.37.097.198.268.413.435.544.19.148.365.572.608.631.177.042.384-.104.543-.143.18-.043.397.01.571-.053.222-.079.127-.337.288-.45.104-.074.287-.01.406-.051.2-.069.339-.263.376-.46l.039-.221c.039-.103.111-.16.09-.293l-.065-.187v-.337c-.003-.2.017-.379-.078-.55-.38-.688-1.236-.929-1.975-.789-.18.034-.287.126-.442.207-.17.088-.139.166-.318.224-.081.026-.216.124-.215.224l.012.169-.03-.025"/><path d="M31.137-41.042c.018.072.007.127-.026.19l-.165.128c-.05.062-.099.276-.079.362-.169.058-.009.227-.015.35l-.045.161c-.01.119.017.266.068.37.097.198.268.413.435.544.19.148.365.572.608.631.177.042.384-.104.543-.143.18-.043.397.01.571-.053.222-.079.127-.337.288-.45.104-.074.287-.01.406-.051.2-.069.339-.263.376-.46l.039-.221c.039-.103.111-.16.09-.293l-.064-.187v-.337c-.003-.2.017-.379-.078-.55-.38-.688-1.236-.929-1.975-.789-.18.034-.287.126-.442.207-.17.088-.139.166-.318.224-.081.026-.216.124-.215.224l.012.169-.03-.025"/><path d="M23.477-41.042c.017.072.007.127-.026.19l-.165.128c-.05.062-.099.276-.079.362-.169.058-.009.227-.015.35l-.045.161c-.01.119.017.266.068.37.097.198.268.413.435.544.19.148.365.572.608.631.177.042.384-.104.543-.143.18-.043.397.01.571-.053.222-.079.127-.337.288-.45.104-.074.287-.01.406-.051.2-.069.339-.263.376-.46l.039-.221c.038-.103.111-.16.09-.293l-.065-.187v-.337c-.003-.2.017-.379-.078-.55-.38-.688-1.236-.929-1.975-.789-.18.034-.287.126-.442.207-.17.088-.139.166-.318.224-.081.026-.216.124-.215.224l.012.169-.03-.025"/><path d="M15.816-41.042c.018.072.007.127-.026.19l-.165.128c-.05.062-.099.276-.079.362-.169.058-.009.227-.015.35l-.045.161c-.01.119.017.266.068.37.097.198.268.413.435.544.19.148.365.572.608.631.177.042.384-.104.543-.143.18-.043.397.01.571-.053.222-.079.128-.337.288-.45.104-.074.287-.01.406-.051.2-.069.339-.263.376-.46l.039-.221c.039-.103.111-.16.09-.293l-.064-.187v-.337c-.003-.2.017-.379-.078-.55-.38-.688-1.236-.929-1.975-.789-.18.034-.287.126-.442.207-.17.088-.139.166-.318.224-.081.026-.216.124-.215.224l.012.169-.03-.025"/><path d="M8.156-41.042c.018.072.007.127-.026.19l-.165.128c-.05.062-.099.276-.079.362-.169.058-.009.227-.015.35l-.045.161c-.01.119.017.266.068.37.097.198.268.413.435.544.19.148.365.572.608.631.177.042.384-.104.543-.143.18-.043.397.01.571-.053.222-.079.127-.337.288-.45.104-.074.287-.01.406-.051.2-.069.339-.263.376-.46l.039-.221c.038-.103.111-.16.09-.293l-.064-.187v-.337c-.003-.2.017-.379-.078-.55-.38-.688-1.236-.929-1.975-.789-.18.034-.287.126-.442.207-.17.088-.139.166-.318.224-.081.026-.216.124-.215.224l.012.169-.03-.024"/><path d="M.495-41.042c.018.072.007.127-.026.19l-.165.128c-.05.062-.099.276-.079.362-.169.058-.01.227-.015.35l-.045.161c-.01.119.017.266.068.37.097.198.268.413.435.544.19.148.365.572.608.631.177.042.384-.104.543-.143.18-.043.397.01.571-.053.222-.079.127-.337.288-.45.104-.074.287-.01.406-.051.2-.069.339-.263.376-.46l.039-.221c.039-.103.111-.16.09-.293l-.064-.187v-.337c-.003-.2.017-.379-.078-.55-.38-.688-1.236-.929-1.975-.789-.18.034-.287.126-.442.207-.17.088-.139.166-.318.224-.081.026-.216.124-.215.224l.012.169-.03-.025"/><path d="M69.439-33.39c.017.072.007.127-.026.19l-.165.128c-.05.062-.099.276-.079.362-.169.058-.01.227-.015.35l-.045.161c-.01.119.017.266.068.37.097.198.268.413.435.544.19.149.365.572.608.631.177.042.384-.104.543-.143.18-.043.397.01.571-.053.222-.079.127-.337.288-.45.104-.074.287-.01.406-.051.2-.069.339-.263.376-.46l.039-.221c.039-.103.111-.16.09-.293l-.064-.187.001-.337c-.003-.2.017-.379-.078-.55-.38-.688-1.236-.929-1.975-.789-.18.034-.287.126-.442.207-.17.088-.139.166-.318.224-.081.026-.216.124-.215.224l.012.169-.03-.025"/><path d="M61.778-33.39c.018.072.007.127-.026.19l-.165.128c-.05.062-.099.276-.079.362-.169.058-.009.227-.015.35l-.045.161c-.01.119.017.266.068.37.097.198.268.413.435.544.19.149.365.572.608.631.177.042.384-.104.543-.143.18-.043.397.01.571-.053.222-.079.127-.337.288-.45.104-.074.287-.01.406-.051.2-.069.339-.263.376-.46l.039-.221c.039-.103.111-.16.09-.293l-.064-.187v-.337c-.003-.2.017-.379-.078-.55-.38-.688-1.236-.929-1.975-.789-.18.034-.287.126-.442.207-.17.088-.139.166-.318.224-.081.026-.216.124-.215.224l.012.169-.03-.025"/><path d="M54.118-33.39c.018.072.007.127-.026.19l-.165.128c-.05.062-.099.276-.079.362-.169.058-.009.227-.015.35l-.045.161c-.01.119.017.266.068.37.097.198.268.413.435.544.19.149.365.572.608.631.177.042.384-.104.543-.143.18-.043.397.01.571-.053.222-.079.127-.337.288-.45.104-.074.287-.01.406-.051.2-.069.339-.263.376-.46l.039-.221c.038-.103.111-.16.09-.293l-.064-.187v-.337c-.003-.2.017-.379-.078-.55-.38-.688-1.236-.929-1.975-.789-.18.034-.287.126-.442.207-.17.088-.139.166-.318.224-.081.026-.216.124-.215.224l.012.169-.03-.025"/><path d="M46.458-33.39c.018.072.007.127-.026.19l-.165.128c-.05.062-.099.276-.079.362-.169.058-.009.227-.015.35l-.045.161c-.01.119.017.266.068.37.097.198.268.413.435.544.19.149.365.572.608.631.177.042.384-.104.543-.143.18-.043.397.01.571-.053.222-.079.127-.337.288-.45.104-.074.287-.01.406-.051.2-.069.339-.263.376-.46l.039-.221c.039-.103.111-.16.09-.293l-.064-.187v-.337c-.003-.2.017-.379-.078-.55-.38-.688-1.236-.929-1.975-.789-.18.034-.287.126-.442.207-.17.088-.139.166-.318.224-.081.026-.216.124-.215.224l.012.169-.03-.025"/><path d="M38.797-33.39c.017.072.007.127-.026.19l-.165.128c-.05.062-.099.276-.079.362-.169.058-.009.227-.015.35l-.045.161c-.01.119.017.266.068.37.097.198.268.413.435.544.19.149.365.572.608.631.177.042.384-.104.543-.143.18-.043.397.01.571-.053.222-.079.127-.337.288-.45.104-.074.287-.01.406-.051.2-.069.339-.263.376-.46l.039-.221c.039-.103.111-.16.09-.293l-.065-.187v-.337c-.003-.2.017-.379-.078-.55-.38-.688-1.236-.929-1.975-.789-.18.034-.287.126-.442.207-.17.088-.139.166-.318.224-.081.026-.216.124-.215.224l.012.169-.03-.025"/><path d="M31.137-33.39c.018.072.007.127-.026.19l-.165.128c-.05.062-.099.276-.079.362-.169.058-.009.227-.015.35l-.045.161c-.01.119.017.266.068.37.097.198.268.413.435.544.19.149.365.572.608.631.177.042.384-.104.543-.143.18-.043.397.01.571-.053.222-.079.127-.337.288-.45.104-.074.287-.01.406-.051.2-.069.339-.263.376-.46l.039-.221c.039-.103.111-.16.09-.293l-.064-.187v-.337c-.003-.2.017-.379-.078-.55-.38-.688-1.236-.929-1.975-.789-.18.034-.287.126-.442.207-.17.088-.139.166-.318.224-.081.026-.216.124-.215.224l.012.169-.03-.025"/><path d="M23.477-33.39c.017.072.007.127-.026.19l-.165.128c-.05.062-.099.276-.079.362-.169.058-.009.227-.015.35l-.045.161c-.01.119.017.266.068.37.097.198.268.413.435.544.19.149.365.572.608.631.177.042.384-.104.543-.143.18-.043.397.01.571-.053.222-.079.127-.337.288-.45.104-.074.287-.01.406-.051.2-.069.339-.263.376-.46l.039-.221c.038-.103.111-.16.09-.293l-.065-.187v-.337c-.003-.2.017-.379-.078-.55-.38-.688-1.236-.929-1.975-.789-.18.034-.287.126-.442.207-.17.088-.139.166-.318.224-.081.026-.216.124-.215.224l.012.169-.03-.025"/><path d="M15.816-33.39c.018.072.007.127-.026.19l-.165.128c-.05.062-.099.276-.079.362-.169.058-.009.227-.015.35l-.045.161c-.01.119.017.266.068.37.097.198.268.413.435.544.19.149.365.572.608.631.177.042.384-.104.543-.143.18-.043.397.01.571-.053.222-.079.128-.337.288-.45.104-.074.287-.01.406-.051.2-.069.339-.263.376-.46l.039-.221c.039-.103.111-.16.09-.293l-.064-.187v-.337c-.003-.2.017-.379-.078-.55-.38-.688-1.236-.929-1.975-.789-.18.034-.287.126-.442.207-.17.088-.139.166-.318.224-.081.026-.216.124-.215.224l.012.169-.03-.025"/><path d="M8.156-33.39c.018.072.007.127-.026.19l-.165.128c-.05.062-.099.276-.079.362-.169.058-.009.227-.015.35l-.045.161c-.01.119.017.266.068.37.097.198.268.413.435.544.19.149.365.572.608.631.177.042.384-.104.543-.143.18-.043.397.01.571-.053.222-.079.127-.337.288-.45.104-.074.287-.01.406-.051.2-.069.339-.263.376-.46l.039-.221c.038-.103.111-.16.09-.293l-.064-.187v-.337c-.003-.2.017-.379-.078-.55-.38-.688-1.236-.929-1.975-.789-.18.034-.287.126-.442.207-.17.088-.139.166-.318.224-.081.026-.216.124-.215.224l.012.169-.03-.025"/><path d="M.495-33.39c.018.072.007.127-.026.19l-.165.128c-.05.062-.099.276-.079.362-.169.058-.01.227-.015.35l-.045.161c-.01.119.017.266.068.37.097.198.268.413.435.544.19.149.365.572.608.631.177.042.384-.104.543-.143.18-.043.397.01.571-.053.222-.079.127-.337.288-.45.104-.074.287-.01.406-.051.2-.069.339-.263.376-.46l.039-.221c.039-.103.111-.16.09-.293l-.064-.187v-.337c-.003-.2.017-.379-.078-.55-.38-.688-1.236-.929-1.975-.789-.18.034-.287.126-.442.207-.17.088-.139.166-.318.224-.081.026-.216.124-.215.224l.013.171-.03-.025"/><path d="M69.439-25.736c.017.072.007.127-.026.19l-.165.128c-.05.062-.099.276-.079.362-.169.058-.01.227-.015.35l-.045.161c-.01.119.017.266.068.37.097.198.268.413.435.544.19.148.365.572.608.631.177.042.384-.104.543-.143.18-.043.397.01.571-.053.222-.079.127-.337.288-.45.104-.074.287-.01.406-.051.2-.069.339-.263.376-.46l.039-.221c.039-.102.111-.16.09-.293l-.064-.186.001-.337c-.003-.2.017-.379-.078-.55-.38-.688-1.236-.929-1.975-.789-.18.034-.287.126-.442.207-.17.088-.139.166-.318.224-.081.026-.216.124-.215.224l.012.169-.03-.025"/><path d="M61.778-25.736c.018.072.007.127-.026.19l-.165.128c-.05.062-.099.276-.079.362-.169.058-.009.227-.015.35l-.045.161c-.01.119.017.266.068.37.097.198.268.413.435.544.19.148.365.572.608.631.177.042.384-.104.543-.143.18-.043.397.01.571-.053.222-.079.127-.337.288-.45.104-.074.287-.01.406-.051.2-.069.339-.263.376-.46l.039-.221c.039-.102.111-.16.09-.293l-.064-.186v-.337c-.003-.2.017-.379-.078-.55-.38-.688-1.236-.929-1.975-.789-.18.034-.287.126-.442.207-.17.088-.139.166-.318.224-.081.026-.216.124-.215.224l.012.169-.03-.025"/><path d="M54.118-25.736c.018.072.007.127-.026.19l-.165.128c-.05.062-.099.276-.079.362-.169.058-.009.227-.015.35l-.045.161c-.01.119.017.266.068.37.097.198.268.413.435.544.19.148.365.572.608.631.177.042.384-.104.543-.143.18-.043.397.01.571-.053.222-.079.127-.337.288-.45.104-.074.287-.01.406-.051.2-.069.339-.263.376-.46l.039-.221c.038-.102.111-.16.09-.293l-.064-.186v-.337c-.003-.2.017-.379-.078-.55-.38-.688-1.236-.929-1.975-.789-.18.034-.287.126-.442.207-.17.088-.139.166-.318.224-.081.026-.216.124-.215.224l.012.169-.03-.025"/><path d="M46.458-25.736c.018.072.007.127-.026.19l-.165.128c-.05.062-.099.276-.079.362-.169.058-.009.227-.015.35l-.045.161c-.01.119.017.266.068.37.097.198.268.413.435.544.19.148.365.572.608.631.177.042.384-.104.543-.143.18-.043.397.01.571-.053.222-.079.127-.337.288-.45.104-.074.287-.01.406-.051.2-.069.339-.263.376-.46l.039-.221c.039-.102.111-.16.09-.293l-.064-.186v-.337c-.003-.2.017-.379-.078-.55-.38-.688-1.236-.929-1.975-.789-.18.034-.287.126-.442.207-.17.088-.139.166-.318.224-.081.026-.216.124-.215.224l.012.169-.03-.025"/><path d="M38.797-25.736c.017.072.007.127-.026.19l-.165.128c-.05.062-.099.276-.079.362-.169.058-.009.227-.015.35l-.045.161c-.01.119.017.266.068.37.097.198.268.413.435.544.19.148.365.572.608.631.177.042.384-.104.543-.143.18-.043.397.01.571-.053.222-.079.127-.337.288-.45.104-.074.287-.01.406-.051.2-.069.339-.263.376-.46l.039-.221c.039-.102.111-.16.09-.293l-.065-.186v-.337c-.003-.2.017-.379-.078-.55-.38-.688-1.236-.929-1.975-.789-.18.034-.287.126-.442.207-.17.088-.139.166-.318.224-.081.026-.216.124-.215.224l.012.169-.03-.025"/><path d="M31.137-25.736c.018.072.007.127-.026.19l-.165.128c-.05.062-.099.276-.079.362-.169.058-.009.227-.015.35l-.045.161c-.01.119.017.266.068.37.097.198.268.413.435.544.19.148.365.572.608.631.177.042.384-.104.543-.143.18-.043.397.01.571-.053.222-.079.127-.337.288-.45.104-.074.287-.01.406-.051.2-.069.339-.263.376-.46l.039-.221c.039-.102.111-.16.09-.293l-.064-.186v-.337c-.003-.2.017-.379-.078-.55-.38-.688-1.236-.929-1.975-.789-.18.034-.287.126-.442.207-.17.088-.139.166-.318.224-.081.026-.216.124-.215.224l.012.169-.03-.025"/><path d="M23.477-25.736c.017.072.007.127-.026.19l-.165.128c-.05.062-.099.276-.079.362-.169.058-.009.227-.015.35l-.045.161c-.01.119.017.266.068.37.097.198.268.413.435.544.19.148.365.572.608.631.177.042.384-.104.543-.143.18-.043.397.01.571-.053.222-.079.127-.337.288-.45.104-.074.287-.01.406-.051.2-.069.339-.263.376-.46l.039-.221c.038-.102.111-.16.09-.293l-.065-.186v-.337c-.003-.2.017-.379-.078-.55-.38-.688-1.236-.929-1.975-.789-.18.034-.287.126-.442.207-.17.088-.139.166-.318.224-.081.026-.216.124-.215.224l.012.169-.03-.025"/><path d="M15.816-25.736c.018.072.007.127-.026.19l-.165.128c-.05.062-.099.276-.079.362-.169.058-.009.227-.015.35l-.045.161c-.01.119.017.266.068.37.097.198.268.413.435.544.19.148.365.572.608.631.177.042.384-.104.543-.143.18-.043.397.01.571-.053.222-.079.128-.337.288-.45.104-.074.287-.01.406-.051.2-.069.339-.263.376-.46l.039-.221c.039-.102.111-.16.09-.293l-.064-.186v-.337c-.003-.2.017-.379-.078-.55-.38-.688-1.236-.929-1.975-.789-.18.034-.287.126-.442.207-.17.088-.139.166-.318.224-.081.026-.216.124-.215.224l.012.169-.03-.025"/><path d="M8.156-25.736c.018.072.007.127-.026.19l-.165.128c-.05.062-.099.276-.079.362-.169.058-.009.227-.015.35l-.045.161c-.01.119.017.266.068.37.097.198.268.413.435.544.19.148.365.572.608.631.177.042.384-.104.543-.143.18-.043.397.01.571-.053.222-.079.127-.337.288-.45.104-.074.287-.01.406-.051.2-.069.339-.263.376-.46l.039-.221c.038-.102.111-.16.09-.293l-.064-.186v-.337c-.003-.2.017-.379-.078-.55-.38-.688-1.236-.929-1.975-.789-.18.034-.287.126-.442.207-.17.088-.139.166-.318.224-.081.026-.216.124-.215.224l.012.169-.03-.025"/><path d="M.495-25.736c.018.072.007.127-.026.19l-.165.128c-.05.062-.099.276-.079.362-.169.058-.01.227-.015.35l-.045.161c-.01.119.017.266.068.37.097.198.268.413.435.544.19.148.365.572.608.631.177.042.384-.104.543-.143.18-.043.397.01.571-.053.222-.079.127-.337.288-.45.104-.074.287-.01.406-.051.2-.069.339-.263.376-.46l.039-.221c.039-.102.111-.16.09-.293l-.064-.186v-.337c-.003-.2.017-.379-.078-.55-.38-.688-1.236-.929-1.975-.789-.18.034-.287.126-.442.207-.17.088-.139.166-.318.224-.081.026-.216.124-.215.224l.012.169-.03-.025"/><path d="M69.439-18.084c.017.072.007.127-.026.19l-.165.128c-.05.062-.099.276-.079.362-.169.058-.01.226-.015.35l-.045.161c-.01.119.017.266.068.37.097.198.268.413.435.544.19.148.365.572.608.631.177.042.384-.104.543-.142.18-.043.397.01.571-.053.222-.079.127-.337.288-.45.104-.074.287-.01.406-.051.2-.069.339-.263.376-.46l.039-.221c.039-.103.111-.16.09-.293l-.064-.187.001-.337c-.003-.2.017-.379-.078-.55-.38-.688-1.236-.929-1.975-.789-.18.034-.287.126-.442.207-.17.088-.139.166-.318.224-.081.026-.216.124-.215.224l.012.169-.03-.025"/><path d="M61.778-18.084c.018.072.007.127-.026.19l-.165.128c-.05.062-.099.276-.079.362-.169.058-.009.226-.015.35l-.045.161c-.01.119.017.266.068.37.097.198.268.413.435.544.19.148.365.572.608.631.177.042.384-.104.543-.142.18-.043.397.01.571-.053.222-.079.127-.337.288-.45.104-.074.287-.01.406-.051.2-.069.339-.263.376-.46l.039-.221c.039-.103.111-.16.09-.293l-.064-.187v-.337c-.003-.2.017-.379-.078-.55-.38-.688-1.236-.929-1.975-.789-.18.034-.287.126-.442.207-.17.088-.139.166-.318.224-.081.026-.216.124-.215.224l.012.169-.03-.025"/><path d="M54.118-18.084c.018.072.007.127-.026.19l-.165.128c-.05.062-.099.276-.079.362-.169.058-.009.226-.015.35l-.045.161c-.01.119.017.266.068.37.097.198.268.413.435.544.19.148.365.572.608.631.177.042.384-.104.543-.142.18-.043.397.01.571-.053.222-.079.127-.337.288-.45.104-.074.287-.01.406-.051.2-.069.339-.263.376-.46l.039-.221c.038-.103.111-.16.09-.293l-.064-.187v-.337c-.003-.2.017-.379-.078-.55-.38-.688-1.236-.929-1.975-.789-.18.034-.287.126-.442.207-.17.088-.139.166-.318.224-.081.026-.216.124-.215.224l.012.169-.03-.025"/><path d="M46.458-18.084c.018.072.007.127-.026.19l-.165.128c-.05.062-.099.276-.079.362-.169.058-.009.226-.015.35l-.045.161c-.01.119.017.266.068.37.097.198.268.413.435.544.19.148.365.572.608.631.177.042.384-.104.543-.142.18-.043.397.01.571-.053.222-.079.127-.337.288-.45.104-.074.287-.01.406-.051.2-.069.339-.263.376-.46l.039-.221c.039-.103.111-.16.09-.293l-.064-.187v-.337c-.003-.2.017-.379-.078-.55-.38-.688-1.236-.929-1.975-.789-.18.034-.287.126-.442.207-.17.088-.139.166-.318.224-.081.026-.216.124-.215.224l.012.169-.03-.025"/><path d="M38.797-18.084c.017.072.007.127-.026.19l-.165.128c-.05.062-.099.276-.079.362-.169.058-.009.226-.015.35l-.045.161c-.01.119.017.266.068.37.097.198.268.413.435.544.19.148.365.572.608.631.177.042.384-.104.543-.142.18-.043.397.01.571-.053.222-.079.127-.337.288-.45.104-.074.287-.01.406-.051.2-.069.339-.263.376-.46l.039-.221c.039-.103.111-.16.09-.293l-.065-.187v-.337c-.003-.2.017-.379-.078-.55-.38-.688-1.236-.929-1.975-.789-.18.034-.287.126-.442.207-.17.088-.139.166-.318.224-.081.026-.216.124-.215.224l.012.169-.03-.025"/><path d="M31.137-18.084c.018.072.007.127-.026.19l-.165.128c-.05.062-.099.276-.079.362-.169.058-.009.226-.015.35l-.045.161c-.01.119.017.266.068.37.097.198.268.413.435.544.19.148.365.572.608.631.177.042.384-.104.543-.142.18-.043.397.01.571-.053.222-.079.127-.337.288-.45.104-.074.287-.01.406-.051.2-.069.339-.263.376-.46l.039-.221c.039-.103.111-.16.09-.293l-.064-.187v-.337c-.003-.2.017-.379-.078-.55-.38-.688-1.236-.929-1.975-.789-.18.034-.287.126-.442.207-.17.088-.139.166-.318.224-.081.026-.216.124-.215.224l.012.169-.03-.025"/><path d="M23.477-18.084c.017.072.007.127-.026.19l-.165.128c-.05.062-.099.276-.079.362-.169.058-.009.226-.015.35l-.045.161c-.01.119.017.266.068.37.097.198.268.413.435.544.19.148.365.572.608.631.177.042.384-.104.543-.142.18-.043.397.01.571-.053.222-.079.127-.337.288-.45.104-.074.287-.01.406-.051.2-.069.339-.263.376-.46l.039-.221c.038-.103.111-.16.09-.293l-.065-.187v-.337c-.003-.2.017-.379-.078-.55-.38-.688-1.236-.929-1.975-.789-.18.034-.287.126-.442.207-.17.088-.139.166-.318.224-.081.026-.216.124-.215.224l.012.169-.03-.025"/><path d="M15.816-18.084c.018.072.007.127-.026.19l-.165.128c-.05.062-.099.276-.079.362-.169.058-.009.226-.015.35l-.045.161c-.01.119.017.266.068.37.097.198.268.413.435.544.19.148.365.572.608.631.177.042.384-.104.543-.142.18-.043.397.01.571-.053.222-.079.128-.337.288-.45.104-.074.287-.01.406-.051.2-.069.339-.263.376-.46l.039-.221c.039-.103.111-.16.09-.293l-.064-.187v-.337c-.003-.2.017-.379-.078-.55-.38-.688-1.236-.929-1.975-.789-.18.034-.287.126-.442.207-.17.088-.139.166-.318.224-.081.026-.216.124-.215.224l.012.169-.03-.025"/><path d="M8.156-18.084c.018.072.007.127-.026.19l-.165.128c-.05.062-.099.276-.079.362-.169.058-.009.226-.015.35l-.045.161c-.01.119.017.266.068.37.097.198.268.413.435.544.19.148.365.572.608.631.177.042.384-.104.543-.142.18-.043.397.01.571-.053.222-.079.127-.337.288-.45.104-.074.287-.01.406-.051.2-.069.339-.263.376-.46l.039-.221c.038-.103.111-.16.09-.293l-.064-.187v-.337c-.003-.2.017-.379-.078-.55-.38-.688-1.236-.929-1.975-.789-.18.034-.287.126-.442.207-.17.088-.139.166-.318.224-.081.026-.216.124-.215.224l.012.169-.03-.025"/><path d="M.495-18.084c.018.072.007.127-.026.19l-.165.128c-.05.062-.099.276-.079.362-.169.058-.01.226-.015.35l-.045.161c-.01.119.017.266.068.37.097.198.268.413.435.544.19.148.365.572.608.631.177.042.384-.104.543-.142.18-.043.397.01.571-.053.222-.079.127-.337.288-.45.104-.074.287-.01.406-.051.2-.069.339-.263.376-.46l.039-.221c.039-.103.111-.16.09-.293l-.064-.187v-.337c-.003-.2.017-.379-.078-.55-.38-.688-1.236-.929-1.975-.789-.18.034-.287.126-.442.207-.17.088-.139.166-.318.224-.081.026-.216.124-.215.224l.013.169-.03-.025"/><path d="M69.439-10.431c.017.072.007.127-.026.191l-.165.128c-.05.062-.099.276-.079.362-.169.058-.01.227-.015.35l-.045.161c-.01.119.017.266.068.37.097.198.268.413.435.544.19.148.365.572.608.631.177.042.384-.104.543-.143.18-.043.397.01.571-.053.222-.079.127-.337.288-.45.104-.074.287-.01.406-.051.2-.069.339-.263.376-.46l.039-.221c.039-.103.111-.16.09-.293l-.064-.187.001-.337c-.003-.2.017-.379-.078-.55-.38-.688-1.236-.929-1.975-.789-.18.034-.287.126-.442.207-.17.088-.139.166-.318.224-.081.026-.216.124-.215.224l.012.169-.03-.025"/><path d="M61.778-10.431c.018.072.007.127-.026.191l-.165.128c-.05.062-.099.276-.079.362-.169.058-.009.227-.015.35l-.045.161c-.01.119.017.266.068.37.097.198.268.413.435.544.19.148.365.572.608.631.177.042.384-.104.543-.143.18-.043.397.01.571-.053.222-.079.127-.337.288-.45.104-.074.287-.01.406-.051.2-.069.339-.263.376-.46l.039-.221c.039-.103.111-.16.09-.293l-.064-.187v-.337c-.003-.2.017-.379-.078-.55-.38-.688-1.236-.929-1.975-.789-.18.034-.287.126-.442.207-.17.088-.139.166-.318.224-.081.026-.216.124-.215.224l.012.169-.03-.025"/><path d="M54.118-10.431c.018.072.007.127-.026.191l-.165.128c-.05.062-.099.276-.079.362-.169.058-.009.227-.015.35l-.045.161c-.01.119.017.266.068.37.097.198.268.413.435.544.19.148.365.572.608.631.177.042.384-.104.543-.143.18-.043.397.01.571-.053.222-.079.127-.337.288-.45.104-.074.287-.01.406-.051.2-.069.339-.263.376-.46l.039-.221c.038-.103.111-.16.09-.293l-.064-.187v-.337c-.003-.2.017-.379-.078-.55-.38-.688-1.236-.929-1.975-.789-.18.034-.287.126-.442.207-.17.088-.139.166-.318.224-.081.026-.216.124-.215.224l.012.169-.03-.025"/><path d="M46.458-10.431c.018.072.007.127-.026.191l-.165.128c-.05.062-.099.276-.079.362-.169.058-.009.227-.015.35l-.045.161c-.01.119.017.266.068.37.097.198.268.413.435.544.19.148.365.572.608.631.177.042.384-.104.543-.143.18-.043.397.01.571-.053.222-.079.127-.337.288-.45.104-.074.287-.01.406-.051.2-.069.339-.263.376-.46l.039-.221c.039-.103.111-.16.09-.293l-.064-.187v-.337c-.003-.2.017-.379-.078-.55-.38-.688-1.236-.929-1.975-.789-.18.034-.287.126-.442.207-.17.088-.139.166-.318.224-.081.026-.216.124-.215.224l.012.169-.03-.025"/><path d="M38.797-10.431c.017.072.007.127-.026.191l-.165.128c-.05.062-.099.276-.079.362-.169.058-.009.227-.015.35l-.045.161c-.01.119.017.266.068.37.097.198.268.413.435.544.19.148.365.572.608.631.177.042.384-.104.543-.143.18-.043.397.01.571-.053.222-.079.127-.337.288-.45.104-.074.287-.01.406-.051.2-.069.339-.263.376-.46l.039-.221c.039-.103.111-.16.09-.293l-.065-.187v-.337c-.003-.2.017-.379-.078-.55-.38-.688-1.236-.929-1.975-.789-.18.034-.287.126-.442.207-.17.088-.139.166-.318.224-.081.026-.216.124-.215.224l.012.169-.03-.025"/><path d="M31.137-10.431c.018.072.007.127-.026.191l-.165.128c-.05.062-.099.276-.079.362-.169.058-.009.227-.015.35l-.045.161c-.01.119.017.266.068.37.097.198.268.413.435.544.19.148.365.572.608.631.177.042.384-.104.543-.143.18-.043.397.01.571-.053.222-.079.127-.337.288-.45.104-.074.287-.01.406-.051.2-.069.339-.263.376-.46l.039-.221c.039-.103.111-.16.09-.293l-.064-.187v-.337c-.003-.2.017-.379-.078-.55-.38-.688-1.236-.929-1.975-.789-.18.034-.287.126-.442.207-.17.088-.139.166-.318.224-.081.026-.216.124-.215.224l.012.169-.03-.025"/><path d="M23.477-10.431c.017.072.007.127-.026.191l-.165.128c-.05.062-.099.276-.079.362-.169.058-.009.227-.015.35l-.045.161c-.01.119.017.266.068.37.097.198.268.413.435.544.19.148.365.572.608.631.177.042.384-.104.543-.143.18-.043.397.01.571-.053.222-.079.127-.337.288-.45.104-.074.287-.01.406-.051.2-.069.339-.263.376-.46l.039-.221c.038-.103.111-.16.09-.293l-.065-.187v-.337c-.003-.2.017-.379-.078-.55-.38-.688-1.236-.929-1.975-.789-.18.034-.287.126-.442.207-.17.088-.139.166-.318.224-.081.026-.216.124-.215.224l.012.169-.03-.025"/><path d="M15.816-10.431c.018.072.007.127-.026.191l-.165.128c-.05.062-.099.276-.079.362-.169.058-.009.227-.015.35l-.045.161c-.01.119.017.266.068.37.097.198.268.413.435.544.19.148.365.572.608.631.177.042.384-.104.543-.143.18-.043.397.01.571-.053.222-.079.128-.337.289-.45.104-.074.287-.01.406-.051.2-.069.339-.263.376-.46l.039-.221c.039-.103.111-.16.09-.293l-.064-.187v-.337c-.003-.2.017-.379-.078-.55-.38-.688-1.236-.929-1.975-.789-.18.034-.287.126-.442.207-.17.088-.139.166-.318.224-.081.026-.216.124-.215.224l.012.169-.03-.025"/><path d="M8.156-10.431c.018.072.007.127-.026.191l-.165.128c-.05.062-.099.276-.079.362-.169.058-.01.227-.015.35l-.045.161c-.01.119.017.266.068.37.097.198.268.413.435.544.19.148.365.572.608.631.177.042.384-.105.543-.143.18-.043.397.01.571-.053.222-.079.127-.337.288-.45.104-.074.287-.01.406-.051.2-.069.339-.263.376-.46l.039-.221c.038-.103.111-.16.09-.293l-.064-.187v-.337c-.003-.2.017-.379-.078-.55-.38-.688-1.236-.929-1.975-.789-.18.034-.287.126-.442.207-.17.088-.139.166-.318.224-.081.026-.216.124-.215.224l.012.169-.03-.025"/><path d="M.495-10.431c.018.072.007.127-.026.191l-.165.128c-.05.062-.099.276-.079.362-.169.058-.01.227-.015.35l-.045.161c-.01.119.017.266.068.37.097.198.268.413.435.544.19.148.365.572.608.631.178.042.384-.105.543-.143.181-.043.398.01.572-.053.222-.079.127-.337.288-.45.104-.074.287-.01.406-.051.2-.069.339-.263.376-.46l.039-.22c.039-.103.111-.16.09-.293l-.064-.187v-.337c-.003-.2.017-.379-.078-.55-.38-.688-1.236-.929-1.975-.789-.18.034-.287.126-.442.207-.17.088-.139.166-.318.224-.081.026-.216.124-.215.224l.012.169-.03-.025"/></g><g fill="#fff"><path d="M69.439-2.778c.017.072.008.127-.026.19l-.165.128c-.051.062-.099.276-.079.362-.169.058-.01.227-.015.35l-.045.161c-.01.119.017.266.068.37.097.198.268.413.435.544.19.148.365.572.608.631.177.042.384-.104.543-.143.18-.043.397.01.571-.053.222-.079.127-.337.288-.45.104-.074.287-.01.406-.051.2-.07.339-.263.376-.46l.039-.221c.038-.103.111-.16.09-.293l-.064-.187.001-.337c-.003-.2.017-.379-.078-.55-.38-.688-1.236-.929-1.975-.789-.18.034-.287.126-.442.207-.17.088-.139.166-.318.224-.081.026-.215.124-.215.224l.012.169-.03-.025"/><path d="M61.778-2.778c.018.072.007.127-.026.19l-.165.128c-.05.062-.099.276-.079.362-.169.058-.01.227-.015.35l-.045.161c-.01.119.017.266.068.37.097.198.268.413.435.544.19.148.365.572.608.631.178.042.384-.104.544-.143.18-.043.397.01.571-.053.222-.079.127-.337.288-.45.104-.074.287-.01.406-.051.2-.069.339-.263.376-.46l.039-.221c.039-.103.111-.16.09-.293l-.064-.187v-.337c-.003-.2.017-.379-.078-.55-.38-.688-1.236-.929-1.975-.789-.18.034-.287.126-.442.207-.17.088-.139.166-.318.224-.081.028-.216.125-.215.225l.012.169-.03-.025"/><path d="M54.118-2.778c.018.072.007.127-.026.19l-.165.128c-.05.062-.099.276-.079.362-.169.058-.01.227-.015.35l-.045.161c-.01.119.017.266.068.37.097.198.268.413.435.544.19.148.365.572.608.631.178.042.384-.104.543-.143.18-.043.397.01.571-.053.222-.079.127-.337.288-.45.104-.074.287-.01.406-.051.2-.069.339-.263.376-.46l.039-.221c.038-.103.111-.16.09-.293l-.064-.187v-.337c-.003-.2.017-.379-.078-.55-.38-.688-1.236-.929-1.975-.789-.18.034-.287.126-.442.207-.17.088-.139.166-.318.224-.08.028-.215.125-.214.225l.012.169-.03-.025"/><path d="M46.458-2.778c.018.072.007.127-.026.19l-.165.128c-.05.062-.099.276-.079.362-.169.058-.01.227-.015.35l-.045.161c-.01.119.017.266.068.37.097.198.268.413.435.544.19.148.365.572.608.631.177.042.384-.104.543-.143.18-.043.397.01.571-.053.222-.079.127-.337.288-.45.104-.074.287-.01.406-.051.2-.069.339-.263.376-.46l.039-.221c.039-.103.111-.16.09-.293l-.064-.187v-.337c-.003-.2.017-.379-.078-.55-.38-.688-1.236-.929-1.975-.789-.18.034-.287.126-.442.207-.17.088-.139.166-.318.224-.081.028-.216.125-.215.225l.012.169-.03-.025"/><path d="M38.797-2.778c.017.072.007.127-.026.19l-.165.128c-.05.062-.099.276-.079.362-.169.058-.01.227-.015.35l-.045.161c-.01.119.017.266.068.37.097.198.268.413.435.544.19.148.365.572.608.631.178.042.384-.104.544-.143.18-.043.397.01.571-.053.222-.079.127-.337.288-.45.104-.074.287-.01.406-.051.2-.069.339-.263.376-.46l.039-.221c.039-.103.111-.16.09-.293l-.065-.187v-.337c-.003-.2.017-.379-.078-.55-.38-.688-1.236-.929-1.975-.789-.18.034-.287.126-.442.207-.17.088-.139.166-.318.224-.08.028-.215.125-.214.225l.012.169-.03-.025"/><path d="M31.137-2.778c.018.072.007.127-.026.19l-.165.128c-.05.062-.099.276-.079.362-.169.058-.01.227-.015.35l-.045.161c-.01.119.017.266.068.37.097.198.268.413.435.544.19.148.365.572.608.631.177.042.384-.104.543-.143.18-.043.397.01.571-.053.222-.079.127-.337.288-.45.104-.074.287-.01.406-.051.2-.069.339-.263.376-.46l.039-.221c.039-.103.111-.16.09-.293l-.064-.187v-.337c-.003-.2.017-.379-.078-.55-.38-.688-1.236-.929-1.975-.789-.18.034-.287.126-.442.207-.17.088-.139.166-.318.224-.081.028-.215.125-.214.225l.012.169-.03-.025"/><path d="M23.477-2.778c.017.072.007.127-.026.19l-.165.128c-.05.062-.099.276-.079.362-.169.058-.01.227-.015.35l-.045.161c-.01.119.017.266.068.37.097.198.268.413.435.544.19.148.365.572.608.631.177.042.384-.104.543-.143.18-.043.397.01.571-.053.222-.079.127-.337.288-.45.104-.074.287-.01.406-.051.2-.069.339-.263.376-.46l.039-.221c.038-.103.111-.16.09-.293l-.065-.187v-.337c-.003-.2.017-.379-.078-.55-.38-.688-1.236-.929-1.975-.789-.18.034-.287.126-.442.207-.17.088-.139.166-.318.224-.081.026-.216.124-.215.224l.012.169-.03-.025"/><path d="M15.816-2.778c.018.072.007.127-.026.19l-.165.128c-.05.062-.099.276-.079.362-.169.058-.01.227-.015.35l-.045.161c-.01.119.017.266.068.37.097.198.268.413.435.544.19.148.365.572.608.631.177.042.384-.104.543-.143.18-.043.397.01.571-.053.222-.079.128-.337.288-.45.104-.074.287-.01.406-.051.2-.069.339-.263.376-.46l.039-.221c.039-.103.111-.16.09-.293l-.064-.187v-.337c-.003-.2.017-.379-.078-.55-.38-.688-1.236-.929-1.975-.789-.18.034-.287.126-.442.207-.17.088-.139.166-.318.224-.081.026-.216.124-.215.224l.012.169-.03-.024"/><path d="M8.156-2.778c.018.072.007.127-.026.19l-.165.128c-.05.062-.099.276-.079.362-.169.058-.01.227-.015.35l-.045.161c-.01.119.017.266.068.37.097.198.268.413.435.544.19.148.365.572.608.631.177.042.384-.104.543-.143.18-.043.397.01.571-.053.222-.079.127-.337.288-.45.104-.074.287-.01.406-.051.2-.069.339-.263.376-.46l.039-.221c.038-.103.111-.16.09-.293l-.064-.187v-.337c-.003-.2.017-.379-.078-.55-.38-.688-1.236-.929-1.975-.789-.179.036-.286.128-.441.209-.17.088-.139.166-.318.224-.082.026-.216.123-.215.223l.011.169-.03-.025"/><path d="M.495-2.778c.018.072.008.127-.026.19l-.165.128c-.051.063-.099.276-.079.362-.169.058-.01.227-.015.35l-.045.161c-.01.119.017.266.068.37.097.198.268.413.435.544.19.148.365.572.608.631.178.042.384-.104.543-.143.181-.043.398.01.572-.052.222-.079.127-.337.288-.45.104-.074.287-.01.406-.051.2-.07.339-.263.376-.46l.039-.221c.038-.103.111-.16.09-.293l-.064-.187v-.337c-.003-.2.017-.379-.078-.55-.38-.688-1.236-.929-1.975-.789-.18.035-.286.127-.442.208-.17.088-.139.166-.318.224-.081.026-.215.123-.215.223l.012.169-.031-.025"/></g></pattern><g fill="#fff"><path d="M131.166 16.634c-20.652-14.753-41.199-13.171-48.13-10.025-11.577 4.935-15.453 15.177-15.453 15.177-8.137-5.036-22.956.894-24.749 11.617l-.742-.106c.944-8.633 5.868-13.259 9.525-15.739 6.99-4.682 13.536-2.045 13.536-2.045 26.317-33.689 67.468-.49 67.468-.49"/><path d="M129.021 23.246c5.525-10.793 13.894-16.576 19.396-18.809 5.504-2.232 10.402-2.333 10.402-2.333 20.427-.44 32.607 18.542 32.607 18.542-.524.691-1.677.171-1.677.171-15.43-17.258-46.779-19.279-58.269 2.354-1.152.52-2.459.075-2.459.075zM25.97 65.486c-1.041.541-2.397 1.025-4.068 1.455-1.67.434-3.422.646-5.256.646-2.691 0-5.063-.41-7.111-1.237-2.045-.828-3.772-2.001-5.172-3.53-1.404-1.525-2.452-3.364-3.154-5.522-.7-2.156-1.051-4.545-1.051-7.166 0-2.839.411-5.384 1.24-7.627.826-2.248 1.993-4.152 3.503-5.713 1.507-1.561 3.341-2.758 5.495-3.586 2.156-.823 4.563-1.237 7.223-1.237 1.581 0 3.053.151 4.419.455 1.367.312 2.46.605 3.286.893 0 .935-.036 1.778-.106 2.53-.076.758-.146 1.404-.217 1.939-.106.646-.217 1.188-.324 1.622h-1.722c0-.218-.031-.541-.081-.976-.055-.43-.131-.879-.217-1.344-.091-.47-.207-.919-.349-1.349-.146-.429-.308-.752-.487-.97-.573-.146-1.209-.252-1.912-.323-.702-.07-1.5-.11-2.399-.11-1.904 0-3.637.363-5.2 1.081-1.563.717-2.892 1.732-3.988 3.045-1.095 1.309-1.939 2.899-2.533 4.769-.593 1.866-.889 3.95-.889 6.25 0 2.19.26 4.241.78 6.146.52 1.905 1.303 3.566 2.346 4.985 1.04 1.42 2.343 2.541 3.907 3.369 1.561.824 3.384 1.237 5.468 1.237 1.798 0 3.331-.161 4.608-.484 1.272-.324 2.432-.732 3.475-1.237l.486 1.989zM35.561 63.249c0 .474.126.848.376 1.131.25.283.609.521 1.063.712.455.187 1.005.339 1.647.444.646.112 1.363.227 2.149.354l-.376 1.697c-.475-.03-.99-.062-1.558-.091-.563-.036-1.139-.056-1.72-.07-.586-.021-1.152-.031-1.697-.046-.553-.015-1.036-.025-1.44-.025-.631 0-1.26.015-1.889.046-.631.034-1.212.06-1.747.096l-1.743.091-.427-1.697c1.165-.343 2.139-.713 2.925-1.105.788-.394 1.182-.905 1.182-1.535v-26.893c0-.475-.104-.858-.306-1.156-.207-.304-.489-.546-.849-.732-.363-.188-.782-.348-1.252-.475-.475-.121-.975-.247-1.51-.373l.472-1.652c.407.061.998.126 1.771.188.771.06 1.702.096 2.809.096h.849c.439 0 .861-.021 1.272-.046v31.041zM62.562 55.683c0 1.849-.268 3.515-.8 4.989-.533 1.476-1.278 2.723-2.235 3.737-.957 1.021-2.101 1.81-3.434 2.355-1.334.55-2.783.822-4.354.822-2.98 0-5.334-.938-7.062-2.824-1.722-1.878-2.585-4.59-2.585-8.141 0-1.884.267-3.552.798-5.011.535-1.46 1.278-2.697 2.237-3.718.955-1.02 2.086-1.793 3.39-2.328 1.303-.535 2.707-.803 4.212-.803 3.104 0 5.521.964 7.248 2.894 1.724 1.931 2.585 4.608 2.585 8.028zm-3.95.823c0-3.207-.596-5.646-1.78-7.314-1.185-1.666-2.761-2.494-4.72-2.494-1.738 0-3.185.763-4.339 2.282-1.151 1.531-1.727 3.768-1.727 6.728 0 1.445.142 2.783.425 4.006.282 1.228.697 2.282 1.233 3.162.54.884 1.211 1.565 2.017 2.055.806.486 1.745.733 2.82.733 1.771 0 3.223-.788 4.364-2.363 1.136-1.573 1.707-3.836 1.707-6.795zM84.063 62.788c0 .218.045.45.142.683.091.237.306.448.636.637.328.185.798.343 1.409.469.611.127 1.438.187 2.47.187l.378 1.363c-.753.224-1.493.415-2.212.571-.631.158-1.272.289-1.929.395-.662.116-1.225.167-1.698.167-.969 0-1.629-.228-1.975-.683-.343-.454-.52-.995-.52-1.621 0-.535.081-1.085.24-1.646l-.145-.051c-.283.501-.657 1.017-1.126 1.53-.475.516-1.031.991-1.674 1.41-.644.425-1.361.763-2.165 1.015-.798.247-1.672.374-2.611.374-1.129 0-2.094-.172-2.894-.516-.801-.343-1.46-.818-1.976-1.408-.52-.603-.904-1.298-1.156-2.097-.247-.804-.374-1.672-.374-2.615v-11.579c0-.469-.103-.848-.308-1.15-.202-.298-.485-.541-.844-.728-.363-.188-.778-.349-1.252-.475-.465-.121-.97-.248-1.503-.374l.473-1.647c.404.062.995.127 1.763.188.77.06 1.702.095 2.8.095h.846c.439 0 .864-.015 1.273-.051v15.396c0 1.408.313 2.499.939 3.267.629.768 1.649 1.151 3.06 1.151.91 0 1.763-.161 2.566-.495.798-.327 1.505-.792 2.116-1.384.611-.597 1.098-1.317 1.459-2.167.358-.848.541-1.803.541-2.869v-8.758c0-.469-.106-.848-.303-1.15-.207-.298-.49-.541-.851-.728-.361-.188-.775-.349-1.25-.475-.467-.121-.97-.248-1.503-.374l.472-1.647c.404.062.995.127 1.763.188.769.06 1.702.095 2.8.095h.849c.437 0 .859-.015 1.27-.051v17.558zM105.569 63.258c-.627 1.133-1.485 2.137-2.566 3.01-1.08.88-2.484 1.319-4.212 1.319-2.601 0-4.637-.985-6.091-2.96-1.459-1.981-2.187-4.914-2.187-8.804 0-1.722.187-3.267.563-4.637.376-1.363.914-2.52 1.623-3.479.702-.955 1.544-1.687 2.516-2.188.975-.505 2.04-.753 3.197-.753.818 0 1.596.082 2.333.239.736.156 1.415.353 2.023.585.614.237 1.154.484 1.624.753.47.267.864.494 1.177.681v-10.681c0-.47-.111-.854-.331-1.151-.22-.298-.51-.541-.868-.732-.361-.187-.788-.344-1.271-.47l-1.53-.374.47-1.646c.406.061.995.126 1.768.188.768.06 1.699.096 2.798.096h.894c.471 0 .909-.021 1.316-.046v30.582c0 .218.048.45.144.683.091.237.296.448.609.637.312.185.777.349 1.392.469.61.127 1.435.187 2.469.187l.374 1.363c-.752.224-1.486.415-2.212.571-.627.158-1.268.289-1.929.395-.657.116-1.221.167-1.692.167-.976 0-1.632-.228-1.976-.683-.348-.454-.52-.995-.52-1.621 0-.535.078-1.08.237-1.646l-.142-.054zm0-14.398c-.596-.345-1.419-.744-2.47-1.198-1.056-.455-2.238-.682-3.556-.682-.909 0-1.687.218-2.328.656-.642.439-1.167 1.046-1.576 1.813-.409.768-.707 1.668-.893 2.708-.19 1.035-.283 2.16-.283 3.389 0 1.47.093 2.813.283 4.021.186 1.207.495 2.243.919 3.105.422.858.97 1.53 1.647 1.995.672.476 1.495.708 2.47.708.876 0 1.677-.224 2.399-.678.722-.459 1.333-1.029 1.833-1.717.5-.691.889-1.444 1.156-2.262.266-.818.399-1.588.399-2.305v-9.553zM137.777 34.797v13.896h11.857v3.151l-11.857-1.137v11.729c0 .54.152.989.46 1.352.309.363.735.662 1.281.9.542.231 1.194.419 1.956.565.761.146 1.594.294 2.506.435l-.384 1.899c-1.016-.036-1.833-.07-2.444-.105-.621-.041-1.162-.076-1.634-.112-.473-.034-.963-.051-1.471-.051h-2.065c-.725 0-1.467.017-2.23.051-.758.036-1.449.071-2.066.112-.729.035-1.415.069-2.071.105l-.596-1.899c1.451-.435 2.621-.909 3.51-1.414.887-.506 1.333-1.127 1.333-1.85v-25.232c0-.728-.446-1.354-1.333-1.879-.889-.525-2.059-.984-3.51-1.39l.596-1.954 4.301.105c1.159.036 2.355.076 3.588.111 1.232.036 2.21.056 2.936.056h2.803c.998 0 2.005-.01 3.018-.03 1.013-.015 1.995-.045 2.935-.08.941-.036 1.78-.091 2.505-.162 0 1.182-.037 2.243-.108 3.172-.075.93-.146 1.702-.217 2.318-.111.728-.237 1.338-.382 1.849h-1.634c0-.213-.024-.515-.081-.895-.055-.384-.118-.787-.189-1.222-.072-.439-.171-.874-.3-1.309-.127-.438-.281-.798-.46-1.086h-10.553zM171.002 55.683c0 1.849-.267 3.515-.804 4.989-.535 1.476-1.277 2.723-2.232 3.737-.959 1.021-2.105 1.81-3.437 2.355-1.333.55-2.785.822-4.355.822-2.98 0-5.334-.938-7.057-2.824-1.727-1.878-2.588-4.59-2.588-8.141 0-1.884.265-3.552.8-5.011.533-1.46 1.278-2.697 2.232-3.718.957-1.02 2.086-1.793 3.389-2.328 1.304-.535 2.708-.803 4.216-.803 3.102 0 5.517.964 7.246 2.894 1.727 1.931 2.59 4.608 2.59 8.028zm-3.955.823c0-3.207-.591-5.646-1.778-7.314-1.186-1.666-2.757-2.494-4.717-2.494-1.74 0-3.188.763-4.344 2.282-1.151 1.531-1.727 3.768-1.727 6.728 0 1.445.142 2.783.429 4.006.283 1.228.691 2.282 1.232 3.162.535.884 1.207 1.565 2.015 2.055.804.486 1.745.733 2.819.733 1.77 0 3.223-.788 4.363-2.363 1.14-1.573 1.708-3.836 1.708-6.795zM192.403 62.788c0 .218.044.45.135.683.096.237.303.448.637.637.328.185.8.327 1.414.469.662.152 1.486.394 2.52.394l.323 1.374c-.753.218-1.459.288-2.182.444-.626.158-1.298.198-1.96.304-.657.116-1.222.167-1.691.167-.975 0-1.632-.228-1.976-.683-.348-.454-.52-.995-.52-1.621 0-.535.082-1.085.232-1.646l-.136-.051c-.283.501-.661 1.017-1.131 1.53-.471.516-1.025.991-1.668 1.41-.646.425-1.367.763-2.166 1.015-.804.247-1.673.374-2.611.374-1.131 0-2.097-.172-2.9-.516-.797-.343-1.459-.818-1.975-1.408-.52-.603-.902-1.298-1.151-2.097-.252-.804-.379-1.672-.379-2.615v-11.579c0-.469-.1-.848-.302-1.15-.208-.298-.491-.541-.849-.728-.362-.188-.777-.349-1.249-.475-.469-.121-.975-.248-1.505-.374l.471-1.647c.409.062.994.127 1.762.188.77.06 1.703.095 2.804.095h.843c.439 0 .864-.015 1.274-.051v15.396c0 1.408.312 2.499.943 3.267.627.768 1.646 1.151 3.057 1.151.909 0 1.768-.161 2.566-.495.797-.327 1.505-.792 2.12-1.384.607-.597 1.097-1.317 1.46-2.167.354-.848.535-1.803.535-2.869v-8.758c0-.469-.101-.848-.302-1.15-.208-.298-.486-.541-.85-.728-.364-.188-.773-.349-1.248-.475-.469-.121-.97-.248-1.505-.374l.47-1.647c.41.062 1 .127 1.768.188.769.06 1.703.095 2.799.095h.848c.439 0 .864-.015 1.275-.051v17.558zM203.362 49.47c0-.475-.101-.854-.308-1.151-.201-.298-.484-.541-.844-.731-.363-.188-.776-.345-1.247-.466-.47-.126-.975-.253-1.505-.378l.471-1.646c.408.06.994.125 1.767.186.768.065 1.697.091 2.797.091h.753c.374 0 .769-.015 1.177-.044.061.347.112.746.138 1.201.034.454.05.839.05 1.151 0 .349-.021.782-.071 1.313-.051.541-.102 1.021-.167 1.465l.142.046c.223-.596.577-1.232 1.062-1.904.484-.677 1.086-1.305 1.813-1.884.721-.581 1.545-1.076 2.469-1.486.925-.403 1.924-.655 2.985-.752 0 .752-.005 1.403-.02 1.955l-.045 1.55c-.015.49-.056.975-.121 1.46-.061.491-.142 1.045-.232 1.673h-1.369c0-.218-.025-.571-.091-1.057-.06-.489-.157-.949-.283-1.39-.939 0-1.793.167-2.54.495-.752.329-1.389.759-1.91 1.294-.514.53-.918 1.156-1.196 1.884-.283.717-.424 1.46-.424 2.207v8.662c0 .47.126.855.373 1.152.253.298.617.539 1.086.731.47.187 1.025.344 1.673.47.641.122 1.338.247 2.09.374l-.374 1.646c-.469-.03-.989-.062-1.55-.091-.57-.036-1.131-.056-1.701-.07-.562-.021-1.112-.031-1.646-.046-.531-.015-1-.025-1.41-.025-.632 0-1.263.015-1.904.046-.647.034-1.232.06-1.768.096-.59.029-1.379-.223-1.879-.641l-.538-1.617c1.402.429 2.417-.025 3.169-.45.753-.423 1.132-.949 1.132-1.575v-13.744z"/></g></svg>